<?xml version="1.0" standalone="no"?>
<!DOCTYPE svg PUBLIC "-//W3C//DTD SVG 20010904//EN"
 "http://www.w3.org/TR/2001/REC-SVG-20010904/DTD/svg10.dtd">
<svg version="1.0" xmlns="http://www.w3.org/2000/svg"
 width="1259.000000pt" height="1259.000000pt" viewBox="0 0 1259.000000 1259.000000"
 preserveAspectRatio="xMidYMid meet">
<metadata>
Created by potrace 1.11, written by Peter Selinger 2001-2013
</metadata>
<g transform="translate(0.000000,1259.000000) scale(0.100000,-0.100000)"
fill="#000000" stroke="none">
<path d="M6110 12559 c-25 -4 -87 -10 -139 -13 -52 -4 -98 -9 -101 -11 -3 -2
-35 -5 -71 -6 -35 -1 -71 -5 -80 -10 -8 -4 -40 -9 -70 -10 -30 -1 -64 -6 -76
-10 -12 -5 -44 -11 -70 -14 -26 -3 -56 -8 -66 -11 -9 -3 -46 -7 -81 -9 -36 -1
-77 -10 -93 -18 -15 -9 -62 -21 -103 -27 -97 -15 -93 -14 -107 -23 -6 -4 -33
-10 -60 -13 -26 -4 -59 -12 -73 -19 -14 -7 -44 -15 -68 -19 -23 -3 -51 -10
-62 -16 -11 -6 -20 -8 -20 -4 0 3 -6 2 -13 -4 -7 -6 -36 -14 -65 -18 -28 -3
-52 -10 -52 -14 0 -10 -77 -38 -115 -42 -16 -2 -33 -7 -36 -12 -4 -5 -30 -11
-58 -14 -34 -3 -51 -9 -51 -18 0 -8 -7 -14 -15 -14 -20 0 -26 -2 -54 -16 -14
-7 -28 -11 -33 -8 -4 3 -8 1 -8 -5 0 -5 -19 -12 -42 -16 -24 -4 -47 -14 -53
-21 -5 -8 -22 -15 -37 -16 -16 -1 -28 -5 -28 -9 0 -7 -48 -29 -71 -33 -8 -1
-41 -15 -74 -31 -33 -17 -63 -30 -67 -30 -3 0 -10 -3 -14 -7 -4 -5 -17 -8 -28
-8 -12 0 -27 -9 -34 -20 -7 -11 -18 -20 -25 -20 -18 0 -67 -24 -67 -32 0 -5
-11 -8 -25 -8 -14 0 -25 -4 -25 -10 0 -5 -7 -10 -15 -10 -8 0 -15 -4 -15 -10
0 -5 -9 -10 -20 -10 -11 0 -20 -4 -20 -10 0 -5 -6 -10 -14 -10 -21 0 -97 -36
-90 -43 4 -3 -7 -9 -22 -13 -16 -4 -31 -10 -34 -13 -9 -10 -49 -31 -61 -31 -6
0 -20 -9 -30 -21 -12 -15 -32 -22 -63 -24 -24 -2 -55 -10 -67 -19 -13 -9 -31
-16 -40 -16 -9 0 -40 -16 -69 -35 -29 -19 -57 -32 -63 -28 -7 3 -9 3 -5 -2 10
-10 -56 -56 -82 -58 -11 -1 -17 -3 -15 -5 6 -6 -41 -42 -54 -42 -6 0 -8 -7 -5
-15 4 -10 0 -15 -15 -15 -12 0 -21 -5 -21 -11 0 -16 -26 -39 -45 -39 -9 0 -13
-4 -10 -10 3 -5 -3 -10 -15 -10 -12 0 -18 -4 -15 -10 3 -5 -1 -10 -10 -10 -9
0 -25 -9 -37 -20 -12 -10 -24 -17 -28 -15 -3 2 -28 -16 -54 -40 -28 -25 -54
-41 -63 -38 -8 3 -13 0 -11 -7 2 -6 -6 -17 -17 -23 -10 -7 -25 -18 -33 -25 -7
-7 -19 -9 -25 -5 -7 3 -9 3 -5 -2 9 -9 -71 -75 -91 -75 -8 0 -11 -3 -8 -6 14
-15 -83 -80 -98 -66 -5 4 -5 2 -2 -4 7 -11 -19 -29 -36 -25 -5 1 -6 -3 -3 -7
6 -10 -26 -52 -38 -52 -4 0 -17 -10 -30 -22 -43 -43 -79 -67 -89 -61 -6 3 -7
1 -3 -5 4 -7 1 -12 -8 -12 -9 0 -15 -3 -15 -7 3 -21 -2 -33 -15 -33 -7 0 -19
-7 -26 -15 -7 -8 -17 -12 -23 -8 -6 3 -7 1 -3 -5 4 -7 2 -12 -4 -12 -6 0 -8
-4 -5 -10 3 -5 3 -10 -2 -10 -14 0 -98 -80 -96 -90 2 -6 -1 -10 -6 -10 -17 0
-201 -194 -201 -211 0 -5 -7 -9 -17 -9 -9 0 -13 -3 -10 -7 8 -7 -34 -39 -46
-35 -5 1 -6 -2 -2 -8 3 -5 0 -10 -8 -10 -10 0 -13 -7 -10 -20 3 -12 0 -20 -7
-20 -13 0 -46 -30 -33 -30 4 -1 -3 -10 -16 -20 -13 -11 -20 -20 -17 -20 4 0
-6 -12 -21 -27 -15 -16 -31 -27 -35 -26 -4 2 -7 0 -6 -5 2 -7 -28 -58 -47 -78
-6 -6 -28 -38 -50 -72 -22 -34 -46 -61 -52 -62 -7 0 -13 -9 -13 -20 0 -11 -5
-20 -11 -20 -5 0 -7 -4 -4 -10 3 -5 -1 -10 -9 -10 -9 0 -15 -3 -14 -7 3 -8
-29 -59 -49 -81 -6 -6 -15 -21 -18 -32 -3 -11 -10 -20 -15 -20 -4 0 -11 -12
-14 -26 -4 -15 -10 -24 -13 -20 -4 3 -22 -24 -41 -61 -19 -38 -37 -70 -41 -73
-11 -9 -46 -65 -44 -71 1 -4 -8 -18 -21 -32 -13 -14 -26 -37 -30 -50 -3 -14
-13 -33 -21 -41 -9 -8 -16 -19 -15 -23 0 -17 -13 -49 -32 -75 -11 -16 -16 -28
-12 -28 4 0 0 -8 -8 -17 -9 -10 -21 -36 -28 -58 -7 -22 -20 -45 -28 -51 -8 -6
-12 -16 -8 -22 4 -7 2 -12 -5 -12 -7 0 -9 -3 -6 -7 4 -3 1 -13 -7 -22 -8 -9
-16 -30 -19 -48 -3 -17 -12 -44 -20 -60 -20 -39 -77 -187 -77 -201 0 -6 -8
-17 -17 -24 -10 -7 -19 -29 -21 -48 -1 -19 -9 -38 -17 -43 -8 -4 -15 -19 -15
-32 0 -21 -33 -90 -50 -105 -3 -3 -5 -15 -4 -28 1 -12 -6 -33 -16 -45 -9 -12
-15 -27 -13 -33 5 -14 -32 -96 -40 -88 -3 3 -4 -2 -3 -13 2 -10 0 -22 -4 -28
-10 -15 -30 -75 -97 -300 -8 -27 -17 -57 -21 -65 -6 -18 -5 -14 -22 -70 -7
-25 -14 -58 -15 -74 -2 -16 -7 -31 -11 -35 -5 -3 -9 -15 -8 -26 0 -11 -2 -24
-5 -30 -6 -11 -7 -15 -16 -70 -3 -22 -10 -56 -16 -75 -5 -19 -9 -50 -9 -67 0
-22 -7 -37 -19 -45 -15 -9 -17 -16 -9 -31 5 -10 7 -29 4 -41 -4 -11 -9 -43
-12 -71 -3 -27 -10 -66 -15 -85 -5 -19 -9 -53 -9 -75 0 -22 -7 -61 -15 -87
-19 -63 -29 -328 -31 -828 -1 -223 -3 -414 -3 -424 -1 -11 2 -22 8 -25 5 -3
12 -54 16 -112 6 -107 13 -160 21 -168 2 -2 -2 -11 -9 -19 -9 -13 -9 -14 1 -8
9 5 12 -6 13 -46 0 -29 3 -62 6 -73 2 -11 8 -45 13 -75 4 -30 10 -66 14 -80 3
-14 8 -47 11 -75 3 -27 8 -59 10 -70 3 -11 7 -31 9 -45 3 -14 8 -36 11 -50 4
-14 8 -51 10 -83 2 -33 10 -66 18 -75 8 -10 13 -26 11 -37 -1 -10 1 -24 6 -30
5 -6 9 -20 9 -30 0 -33 5 -60 14 -66 5 -3 12 -21 17 -40 5 -19 16 -63 25 -99
9 -36 20 -73 26 -82 5 -10 9 -26 9 -35 0 -10 9 -41 20 -69 10 -29 16 -55 12
-58 -3 -4 -1 -10 5 -14 6 -4 13 -21 16 -38 3 -17 10 -41 16 -53 7 -11 9 -21 6
-21 -4 0 2 -15 14 -33 11 -18 21 -44 23 -59 2 -14 9 -32 15 -39 14 -18 38 -91
35 -107 -2 -6 2 -12 9 -12 6 0 8 -7 5 -16 -3 -8 -2 -13 3 -10 5 3 12 -6 17
-22 4 -15 8 -29 9 -32 1 -3 7 -24 13 -46 7 -23 18 -44 25 -47 6 -2 18 -25 26
-51 7 -25 17 -46 22 -46 5 0 9 -11 9 -24 0 -13 7 -29 15 -36 8 -7 18 -30 21
-51 4 -21 12 -40 19 -43 7 -2 16 -19 20 -37 4 -18 15 -40 24 -50 9 -10 31 -49
50 -86 19 -37 46 -88 60 -113 14 -24 27 -53 28 -63 2 -10 17 -32 33 -49 17
-16 28 -34 24 -39 -3 -5 0 -9 6 -9 6 0 8 -4 5 -10 -3 -5 -2 -10 3 -10 11 0 38
-61 34 -75 -2 -5 0 -7 4 -3 8 8 54 -53 54 -71 0 -6 9 -16 20 -23 11 -7 20 -18
20 -25 0 -15 60 -113 60 -99 0 6 6 1 14 -9 8 -11 12 -23 10 -27 -3 -5 -1 -8 4
-8 5 0 17 -18 28 -39 10 -22 22 -37 26 -34 11 6 30 -47 24 -64 -3 -8 -1 -11 4
-8 5 3 17 -3 27 -13 35 -37 63 -72 63 -81 0 -5 7 -11 15 -15 8 -3 15 -9 14
-13 -3 -20 2 -34 10 -29 5 4 19 -10 31 -29 12 -19 27 -35 32 -35 6 0 9 -3 5
-6 -5 -5 24 -41 71 -90 7 -8 14 -23 15 -34 1 -11 5 -20 10 -20 20 0 90 -74 80
-84 -4 -3 1 -6 10 -6 9 0 17 -4 17 -8 0 -5 9 -19 20 -32 11 -12 17 -27 13 -33
-3 -6 -1 -7 5 -3 7 4 12 3 12 -3 0 -5 12 -16 28 -24 15 -7 26 -19 24 -25 -1
-7 5 -12 13 -12 8 0 15 -5 15 -10 0 -6 16 -24 35 -41 19 -17 32 -35 29 -40 -3
-5 2 -9 11 -9 10 0 13 -5 9 -12 -4 -6 -3 -8 3 -5 5 3 33 -18 62 -48 28 -30 53
-55 55 -55 6 0 61 -50 142 -127 42 -40 83 -73 91 -73 8 0 11 -5 8 -10 -3 -6 0
-10 7 -10 7 0 38 -23 68 -50 30 -27 58 -50 63 -50 4 0 15 -8 26 -17 10 -10 43
-36 74 -57 31 -22 59 -46 61 -53 3 -7 12 -13 21 -13 8 0 15 -4 15 -10 0 -5 7
-10 15 -10 9 0 20 -10 25 -22 5 -13 9 -18 10 -13 0 6 4 4 8 -3 5 -7 18 -14 30
-17 28 -5 64 -30 55 -38 -3 -4 1 -7 11 -7 10 0 14 -5 10 -12 -4 -7 -3 -8 4 -4
15 9 63 -23 55 -38 -3 -6 -3 -8 2 -4 10 9 65 -19 65 -33 0 -6 4 -8 9 -4 5 3
16 -2 24 -10 9 -8 23 -15 31 -15 9 0 16 -4 16 -10 0 -5 6 -10 14 -10 8 0 16
-3 18 -7 4 -11 53 -39 111 -65 26 -12 47 -28 47 -35 0 -8 5 -11 10 -8 6 3 12
0 15 -7 3 -7 16 -14 30 -14 13 -1 45 -16 70 -33 25 -17 50 -31 55 -31 5 0 25
-9 45 -20 20 -11 42 -20 50 -20 8 0 20 -8 27 -17 7 -10 22 -19 33 -21 11 -2
35 -12 53 -23 19 -11 37 -17 42 -14 5 3 14 -1 22 -8 19 -19 77 -47 112 -53 17
-3 35 -9 41 -15 5 -5 17 -9 27 -9 10 0 18 -6 18 -14 0 -9 18 -16 55 -21 30 -3
55 -11 55 -17 0 -6 3 -8 6 -5 4 3 16 1 28 -5 21 -12 27 -14 59 -16 12 -1 16
-7 11 -14 -4 -7 -4 -10 1 -6 4 4 19 1 34 -6 14 -7 51 -19 81 -25 54 -12 74
-19 135 -47 17 -7 44 -15 60 -17 28 -3 50 -9 172 -44 29 -8 54 -15 55 -15 4 0
82 -16 118 -24 13 -3 27 -8 30 -12 3 -4 34 -9 70 -11 36 -1 70 -6 75 -11 6 -4
25 -8 43 -8 18 0 39 -5 45 -10 13 -10 71 -21 152 -28 28 -3 57 -7 65 -10 8 -3
37 -7 65 -10 27 -3 57 -7 65 -10 8 -3 46 -7 84 -10 38 -3 73 -7 77 -10 4 -2
47 -7 95 -10 49 -3 105 -9 124 -13 19 -4 82 -9 140 -10 58 -1 107 -6 110 -9 3
-4 99 -8 215 -10 170 -3 211 -6 218 -18 4 -8 19 -14 32 -14 13 0 25 -5 27 -10
2 -6 14 -7 34 -1 25 7 247 22 379 25 11 1 22 4 25 8 3 4 46 8 95 9 50 1 92 5
95 10 3 4 34 10 70 12 78 7 186 23 198 31 5 3 32 7 59 10 27 2 69 11 94 19 24
8 65 17 91 20 26 3 55 10 65 15 10 6 21 10 26 10 10 0 116 32 142 42 23 9 132
32 141 30 4 -1 10 4 14 10 4 7 19 13 34 13 14 0 23 3 20 8 -3 5 5 9 18 9 13 0
28 4 33 9 6 5 28 12 50 15 21 4 46 13 55 21 9 8 29 16 43 17 15 1 27 6 27 10
0 4 7 8 15 8 8 0 23 4 33 9 27 14 80 33 88 31 4 -1 10 2 13 7 9 12 93 52 116
56 11 1 42 15 69 30 27 15 54 27 60 27 6 0 20 7 30 15 10 8 23 12 27 9 5 -3 9
0 9 5 0 6 5 11 11 11 6 0 37 15 68 32 31 18 61 32 67 30 7 -1 14 5 18 13 3 9
10 13 16 10 5 -3 10 -2 10 3 0 4 16 14 35 22 19 8 35 17 35 21 0 4 12 10 27
14 15 3 32 12 37 20 6 7 20 15 31 17 11 2 31 13 45 26 14 12 31 20 38 17 7 -2
20 3 30 13 9 9 33 28 52 42 19 13 37 27 40 30 3 4 17 10 32 14 15 3 39 18 53
32 14 14 35 26 47 27 11 1 23 8 25 17 2 9 17 21 32 28 15 7 37 21 49 32 12 11
26 20 31 20 10 0 36 19 67 48 13 12 30 19 57 21 4 1 13 12 19 26 6 13 19 27
29 30 9 3 32 19 51 35 18 17 43 33 55 36 12 3 24 12 27 21 3 8 10 11 16 8 5
-3 10 3 10 14 0 12 7 21 15 21 8 0 15 5 15 10 0 6 7 10 15 10 8 0 15 4 15 9 0
5 26 28 58 51 31 24 76 63 100 87 23 24 47 41 52 38 6 -3 10 0 10 8 0 13 53
67 66 67 4 0 17 11 30 25 13 14 21 25 19 25 -2 0 24 27 57 60 34 33 65 57 69
54 5 -3 9 3 9 13 0 10 16 29 35 42 19 13 37 32 40 42 4 10 13 19 21 19 8 0 13
3 12 8 -2 4 18 30 45 57 26 27 47 53 47 57 0 5 7 8 15 8 8 0 15 6 15 14 0 8
15 30 33 49 38 41 79 89 127 147 19 23 45 53 56 66 12 12 20 25 18 27 -3 2 18
28 46 57 27 29 50 58 50 65 0 6 9 20 20 30 12 11 28 34 37 52 9 19 20 30 27
26 6 -3 8 -3 4 2 -7 7 43 81 65 96 5 3 8 10 7 14 -1 4 7 18 19 31 11 13 19 24
16 24 -9 0 68 115 98 147 17 18 28 33 24 33 -11 0 24 64 39 73 8 4 14 16 14
26 0 10 9 26 20 36 11 10 17 22 14 26 -3 5 0 9 6 9 6 0 8 5 5 10 -3 6 -2 10 3
10 6 0 13 11 16 25 4 16 11 23 18 19 6 -4 8 -3 5 3 -4 6 2 22 13 36 11 14 20
31 20 38 0 16 62 143 73 147 4 2 7 10 7 18 0 8 10 34 22 57 12 23 23 44 23 47
4 23 18 50 26 50 5 0 8 3 7 8 -4 16 14 72 23 72 6 0 8 3 6 8 -3 4 3 25 14 46
10 22 19 44 19 48 0 9 24 64 61 145 22 45 40 136 30 151 -7 11 -53 23 -46 12
3 -4 -2 -10 -9 -13 -10 -4 -17 4 -21 23 -4 16 -4 33 -2 37 3 5 8 26 11 48 4
22 9 48 12 58 3 9 2 17 -1 17 -10 0 -35 -28 -35 -39 0 -6 -4 -19 -9 -29 -14
-26 -24 -54 -28 -82 -2 -14 -6 -32 -10 -40 -3 -8 -5 -21 -4 -28 1 -6 -4 -12
-10 -12 -7 0 -10 -3 -6 -6 3 -4 0 -23 -8 -43 -7 -20 -16 -49 -20 -66 -4 -16
-16 -46 -28 -65 -12 -19 -21 -39 -19 -44 3 -10 -10 -48 -40 -113 -13 -29 -26
-43 -39 -43 -25 0 -28 36 -7 89 6 14 12 39 14 55 2 16 9 35 15 43 6 7 9 13 7
13 -3 0 6 39 19 88 14 48 29 105 33 127 5 22 18 81 30 130 23 97 36 265 20
265 -6 0 -6 9 0 24 5 13 6 27 3 30 -4 3 -1 6 4 6 6 0 10 8 8 17 -1 10 1 27 5
39 9 23 -4 50 -34 76 -26 22 -36 22 -36 3 0 -8 -4 -15 -8 -15 -4 0 -9 -11 -10
-24 -1 -14 -9 -44 -17 -68 -9 -24 -18 -54 -21 -67 -5 -23 -26 -51 -40 -51 -6
0 0 113 10 180 24 158 35 289 26 295 -7 4 -20 -18 -22 -35 0 -3 -9 -22 -19
-42 -10 -21 -19 -44 -19 -53 0 -8 -4 -15 -10 -15 -5 0 -10 -9 -10 -20 0 -12
-7 -20 -17 -20 -9 0 -14 -3 -10 -6 3 -4 -9 -37 -28 -74 -24 -47 -40 -68 -51
-66 -27 4 -33 28 -35 132 0 54 -5 119 -9 144 -5 25 -11 88 -14 140 -3 52 -8
106 -11 120 -3 14 -7 45 -9 70 -7 77 -44 58 -61 -32 -3 -18 -8 -42 -10 -53 -2
-11 -4 -33 -4 -48 -1 -20 -9 -33 -30 -45 -34 -19 -60 -59 -55 -86 1 -11 -4
-35 -11 -53 -8 -18 -14 -37 -15 -41 -3 -45 -106 -298 -130 -322 -9 -8 -15 -24
-14 -35 0 -11 -18 -58 -42 -105 -24 -47 -54 -108 -67 -136 -14 -28 -32 -54
-41 -57 -10 -4 -15 -11 -12 -16 3 -5 -5 -25 -18 -44 -13 -19 -22 -37 -20 -40
2 -2 -5 -12 -16 -22 -11 -10 -20 -24 -20 -32 0 -7 -5 -13 -11 -13 -5 0 -8 -4
-4 -9 3 -5 -5 -17 -17 -25 -12 -9 -19 -16 -14 -16 5 0 1 -9 -9 -20 -10 -11
-21 -17 -26 -14 -4 2 -6 -4 -4 -15 2 -11 -7 -28 -20 -41 -13 -12 -29 -35 -35
-51 -7 -16 -16 -29 -21 -29 -5 0 -14 -11 -19 -25 -5 -14 -16 -28 -25 -31 -8
-3 -12 -10 -9 -15 3 -5 -2 -9 -10 -9 -9 0 -23 -16 -31 -36 -8 -20 -31 -52 -50
-70 -19 -18 -35 -36 -35 -41 -1 -14 -50 -44 -60 -38 -6 4 -10 3 -9 -2 4 -22
-3 -33 -20 -33 -10 0 -22 -7 -25 -16 -4 -9 -13 -14 -22 -10 -9 3 -12 2 -8 -5
6 -10 -60 -79 -77 -79 -5 0 -9 -10 -9 -22 -1 -26 -24 -61 -33 -51 -4 3 -7 0
-7 -9 0 -8 -12 -28 -28 -44 -15 -16 -28 -33 -29 -38 0 -4 -17 -27 -37 -50 -41
-46 -44 -49 -69 -89 -10 -15 -24 -27 -32 -27 -8 0 -15 -9 -15 -20 0 -11 -6
-20 -12 -20 -7 -1 -28 -21 -46 -46 -19 -25 -38 -42 -44 -38 -7 4 -8 2 -4 -5
10 -15 -52 -73 -80 -75 -13 0 -19 -6 -17 -14 3 -6 -5 -21 -18 -32 -13 -10 -19
-20 -14 -20 6 0 -3 -9 -20 -20 -16 -11 -26 -20 -21 -20 5 0 -4 -11 -20 -25
-16 -14 -35 -25 -41 -25 -7 0 -13 -6 -13 -12 0 -13 -72 -88 -84 -88 -4 0 -25
-19 -47 -42 -23 -24 -45 -42 -50 -40 -5 1 -9 -2 -9 -8 0 -5 -8 -10 -17 -10 -9
0 -14 -3 -10 -6 6 -7 -45 -54 -59 -54 -5 0 -18 -14 -29 -30 -11 -16 -28 -30
-37 -30 -10 0 -18 -4 -18 -8 0 -10 -98 -84 -132 -99 -14 -6 -31 -21 -38 -32
-6 -12 -15 -21 -21 -21 -6 0 -17 -7 -26 -15 -8 -8 -19 -12 -25 -9 -7 4 -8 2
-4 -4 4 -7 3 -12 -2 -12 -5 0 -23 -13 -40 -30 -18 -16 -39 -30 -47 -30 -8 0
-15 -4 -15 -10 0 -5 -6 -10 -14 -10 -8 0 -16 -7 -20 -15 -3 -8 -14 -15 -23
-15 -10 0 -26 -8 -35 -17 -40 -43 -153 -107 -170 -97 -7 4 -8 3 -4 -4 4 -7 1
-12 -6 -12 -8 0 -20 -9 -28 -20 -8 -11 -22 -20 -32 -20 -10 0 -18 -4 -18 -10
0 -5 -9 -10 -20 -10 -11 0 -20 -4 -20 -9 0 -5 -15 -14 -32 -22 -18 -7 -35 -16
-38 -20 -9 -12 -70 -40 -70 -32 0 5 -4 2 -8 -4 -5 -7 -20 -14 -35 -15 -15 -1
-27 -6 -27 -10 0 -4 -7 -8 -16 -8 -8 0 -13 -4 -10 -8 3 -5 -27 -20 -66 -33
-39 -13 -81 -31 -93 -41 -13 -10 -31 -19 -41 -21 -11 -2 -28 -8 -39 -14 -11
-6 -24 -11 -28 -11 -18 0 -97 -27 -97 -33 0 -4 -26 -15 -57 -24 -32 -9 -80
-26 -107 -37 -70 -28 -134 -47 -140 -40 -4 3 -6 1 -6 -5 0 -6 -27 -13 -60 -17
-33 -4 -62 -11 -64 -15 -3 -5 -17 -7 -31 -6 -14 2 -27 -1 -31 -6 -3 -5 -14 -9
-25 -9 -10 0 -19 -4 -19 -10 0 -5 -19 -10 -43 -10 -24 0 -47 -4 -52 -9 -6 -5
-39 -11 -75 -12 -36 -2 -70 -7 -77 -12 -7 -5 -37 -10 -67 -12 -31 -2 -60 -6
-65 -10 -5 -3 -34 -7 -63 -10 -29 -3 -73 -8 -98 -12 -25 -4 -52 -8 -60 -8 -8
-1 -60 -5 -114 -9 -133 -11 -476 -14 -611 -4 -60 4 -163 10 -228 12 -65 3
-123 9 -129 13 -7 3 -38 8 -70 9 -32 2 -67 8 -77 14 -11 5 -38 10 -61 10 -23
0 -39 4 -36 8 3 5 -11 9 -30 10 -19 1 -39 4 -43 6 -4 3 -23 8 -42 11 -41 7
-109 24 -129 32 -8 3 -26 8 -40 10 -14 2 -47 11 -73 19 -55 18 -73 22 -105 23
-13 1 -21 5 -18 10 3 4 -5 8 -17 7 -12 -1 -32 4 -43 11 -12 8 -26 13 -30 12
-5 -1 -24 -1 -42 0 -23 1 -31 5 -26 13 5 7 2 9 -7 6 -8 -3 -25 -1 -39 5 -14 5
-36 12 -50 14 -14 2 -45 11 -70 20 -25 9 -52 16 -60 17 -23 3 -112 38 -135 53
-11 7 -28 13 -38 13 -10 0 -15 4 -12 10 3 5 0 8 -7 5 -7 -3 -29 4 -48 15 -19
11 -47 25 -62 31 -16 6 -28 14 -28 19 0 4 -15 13 -32 20 -57 21 -142 64 -167
82 -13 10 -30 18 -38 18 -8 0 -28 13 -46 30 -18 16 -38 30 -45 30 -13 0 -178
108 -204 133 -7 8 -24 18 -37 22 -13 4 -31 13 -40 21 -9 7 -34 27 -56 43 -22
17 -47 36 -55 43 -8 7 -17 13 -20 13 -18 2 -49 28 -44 37 4 6 3 8 -2 5 -5 -3
-27 10 -49 29 -22 19 -43 34 -48 34 -4 0 -5 5 -2 10 3 6 -1 10 -10 10 -9 0
-41 25 -70 55 -30 30 -58 55 -63 55 -20 0 -134 109 -126 121 3 5 2 8 -3 7 -14
-4 -53 26 -53 41 0 8 -2 12 -5 9 -7 -7 -105 89 -105 103 0 6 -3 8 -7 6 -5 -2
-21 9 -36 25 -15 15 -25 28 -23 28 3 0 -14 20 -37 44 -111 117 -127 135 -127
142 0 5 -11 18 -24 29 -13 11 -24 24 -24 28 0 5 -14 24 -30 42 -17 18 -28 36
-24 41 4 4 2 4 -5 0 -7 -4 -17 3 -24 16 -7 12 -18 29 -26 36 -7 8 -10 19 -6
25 3 7 3 9 -2 5 -7 -7 -55 43 -55 59 0 5 -9 16 -20 26 -12 10 -18 22 -15 27 3
5 -4 11 -15 15 -11 3 -20 15 -20 26 0 10 -4 19 -9 19 -13 0 -101 133 -106 160
-4 21 -15 34 -37 42 -3 2 -8 12 -10 23 -1 11 -8 25 -15 30 -14 11 -57 86 -74
128 -6 15 -14 27 -18 27 -4 0 -13 16 -20 36 -7 20 -24 53 -38 73 -13 20 -27
48 -30 64 -3 15 -9 27 -13 27 -9 0 -63 110 -86 173 -7 21 -20 45 -29 53 -8 9
-15 24 -15 34 0 10 -5 22 -10 25 -6 4 -10 12 -8 18 1 7 -9 35 -21 62 -43 93
-50 111 -56 145 -3 19 -19 62 -36 97 -16 34 -28 65 -27 70 1 4 -3 17 -9 28 -6
11 -13 34 -16 52 -3 17 -8 36 -11 42 -4 6 -9 27 -11 46 -3 20 -11 48 -19 63
-13 25 -37 123 -41 164 -1 10 -4 21 -8 24 -4 4 -7 26 -7 50 0 23 -4 44 -9 46
-5 2 -12 19 -15 38 -7 42 -14 80 -27 140 -5 25 -11 63 -14 85 -8 89 -16 149
-20 155 -2 4 -7 51 -10 106 -4 54 -10 133 -15 174 -5 41 -8 82 -6 90 1 8 6 26
9 40 8 34 17 125 23 240 2 52 6 124 8 160 3 36 7 119 10 185 4 66 11 152 16
190 5 39 12 106 16 150 4 44 8 89 10 100 1 11 3 45 4 75 2 30 7 62 11 71 12
24 20 76 23 154 1 39 8 80 14 92 7 12 12 33 12 47 0 14 6 31 13 38 8 6 12 22
9 34 -2 12 3 33 12 46 9 13 18 43 21 67 3 24 10 51 15 61 6 10 10 26 10 35 0
9 9 35 20 57 11 23 20 48 20 55 0 8 9 32 20 53 11 22 18 40 16 40 -5 0 46 133
79 206 14 30 25 58 25 62 0 4 9 15 20 25 11 9 20 27 20 39 0 13 13 50 29 83
16 33 41 85 55 115 45 93 73 139 81 132 5 -4 5 -2 1 5 -7 12 11 52 29 65 6 4
7 8 3 8 -4 0 3 15 16 34 12 19 29 48 36 65 7 17 17 31 22 31 5 0 6 4 3 10 -3
5 8 24 24 41 17 17 29 35 26 39 -2 4 5 16 15 28 11 12 20 26 20 31 0 16 57
101 63 95 3 -4 10 9 15 27 5 19 14 33 21 32 6 -2 11 0 10 5 -3 18 14 52 26 52
7 0 15 8 19 18 10 30 44 77 98 134 20 21 45 56 56 76 11 20 25 36 32 34 6 -1
9 2 6 7 -4 5 5 21 18 34 14 14 23 27 20 30 -3 2 9 10 25 17 18 7 31 21 33 33
2 12 9 21 16 20 6 -2 12 4 12 12 0 16 8 28 45 69 11 12 28 34 38 49 9 15 21
27 26 27 12 0 76 61 76 72 0 5 8 15 18 22 9 7 17 17 17 22 0 13 52 54 61 48 5
-3 9 0 9 5 0 6 9 20 19 30 25 25 46 63 42 76 -1 5 1 7 5 3 7 -8 37 11 94 61
19 17 38 32 43 32 4 1 13 2 20 3 6 1 11 7 9 14 -1 7 9 18 23 24 14 6 25 14 25
18 0 4 14 10 30 14 19 3 34 15 42 31 6 14 15 25 19 25 8 0 36 20 64 48 8 6 21
12 30 12 9 0 28 12 42 28 15 15 22 20 18 12 -5 -8 7 0 25 18 19 18 40 30 47
28 7 -3 17 4 23 14 6 11 22 23 35 26 14 3 25 12 25 20 0 15 42 29 64 21 10 -4
12 0 9 14 -4 15 0 19 18 20 13 1 28 1 32 0 5 -1 11 8 14 19 3 11 14 20 24 20
11 0 19 5 19 11 0 5 14 15 30 20 17 6 30 15 30 20 0 5 9 9 20 9 11 0 20 3 20
8 0 4 15 13 33 21 17 8 48 24 67 36 19 12 47 25 63 29 15 3 27 10 27 15 0 4
31 18 69 31 38 13 68 27 66 31 -7 11 97 52 132 51 12 0 24 7 27 15 3 8 10 11
16 8 5 -3 10 -2 10 3 0 8 61 38 130 62 19 6 44 16 55 21 11 5 27 10 35 11 8 2
17 6 20 9 3 4 21 9 40 11 20 3 50 13 67 22 18 9 39 16 48 16 8 0 15 5 15 10 0
6 14 10 30 10 17 0 38 4 48 9 28 16 55 24 87 27 36 3 51 7 89 23 17 7 39 11
50 9 12 -1 26 1 32 4 6 4 26 10 44 13 19 3 40 11 47 17 7 6 13 8 13 5 0 -3 12
0 27 8 15 8 30 12 35 9 6 -4 37 3 98 21 30 9 61 16 90 19 19 2 42 6 50 9 23 9
143 27 211 32 33 3 64 7 68 9 4 3 49 8 100 11 52 3 112 9 135 13 22 4 71 7
109 7 37 0 67 3 67 7 0 5 110 8 245 8 135 0 245 -3 245 -7 0 -5 42 -8 93 -8
50 0 111 -3 133 -7 23 -4 72 -9 110 -13 38 -3 84 -8 102 -11 17 -4 47 -7 65
-9 63 -5 308 -45 367 -60 30 -8 98 -24 195 -45 55 -13 108 -27 119 -32 23 -12
55 -20 78 -20 10 1 20 -3 23 -8 3 -5 28 -12 56 -16 27 -4 52 -11 55 -15 3 -5
15 -9 27 -9 12 0 28 -4 36 -9 12 -8 12 -12 -3 -26 -9 -10 -14 -20 -11 -24 4
-3 11 2 16 11 7 13 19 16 50 13 23 -3 46 -8 53 -13 6 -5 43 -20 81 -33 39 -13
72 -26 75 -29 3 -3 16 -7 29 -8 14 -2 34 -10 45 -17 12 -7 32 -16 45 -20 14
-4 33 -16 44 -25 10 -10 25 -16 33 -13 7 2 26 -2 41 -10 95 -49 112 -57 127
-57 9 0 16 -4 16 -10 0 -5 6 -10 13 -10 23 0 76 -30 94 -54 10 -12 25 -20 32
-18 12 4 76 -23 91 -38 8 -8 102 -60 148 -81 23 -11 42 -24 42 -29 0 -6 7 -10
15 -10 8 0 20 -9 27 -20 7 -11 20 -20 29 -20 9 0 20 -7 23 -16 3 -8 10 -12 16
-9 5 3 10 1 10 -4 0 -6 7 -11 16 -11 9 0 33 -9 53 -21 l36 -21 -37 35 c-21 19
-38 40 -38 46 0 7 -4 9 -10 6 -5 -3 -15 -1 -22 5 -7 6 -22 18 -33 26 -11 9
-13 12 -5 8 10 -5 12 -4 5 4 -5 6 -19 12 -30 14 -23 4 -54 30 -48 40 2 4 -2 5
-10 2 -8 -3 -20 2 -27 11 -7 8 -19 15 -27 15 -7 0 -16 6 -19 14 -3 8 -15 17
-27 20 -13 3 -32 14 -43 25 -12 10 -30 21 -40 23 -10 2 -27 19 -36 38 -9 19
-17 29 -18 23 0 -18 -25 -16 -44 2 -8 8 -19 15 -23 15 -5 0 -30 14 -56 30 -26
17 -53 30 -59 30 -6 0 -20 8 -30 17 -10 9 -29 18 -41 20 -12 2 -23 8 -25 13
-2 6 -10 10 -17 10 -7 0 -15 3 -17 8 -3 7 -59 35 -125 63 -18 8 -33 17 -33 21
0 5 -9 8 -20 8 -18 0 -57 17 -70 30 -3 3 -14 6 -25 8 -11 2 -25 10 -32 19 -7
9 -24 17 -39 19 -16 1 -37 7 -48 12 -114 52 -141 63 -165 68 -7 1 -18 7 -24
13 -6 6 -24 11 -39 11 -16 0 -31 7 -34 15 -4 10 -15 12 -36 8 -20 -4 -29 -2
-25 4 3 5 0 10 -8 10 -17 0 -87 20 -130 38 -71 28 -204 64 -214 56 -2 -1 -7 3
-11 9 -4 6 -27 14 -51 17 -24 2 -51 7 -59 10 -20 8 -19 8 -72 17 -34 5 -48 12
-48 23 0 12 -3 13 -14 4 -11 -9 -25 -10 -53 -2 -21 6 -53 11 -70 11 -18 0 -33
4 -33 9 0 6 -8 8 -18 6 -10 -2 -38 1 -62 6 -25 5 -67 11 -95 14 -27 3 -57 8
-65 11 -8 3 -49 8 -90 10 -41 3 -78 8 -82 10 -10 6 -204 17 -320 18 -47 1 -85
3 -83 6 2 3 -32 5 -75 5 -43 0 -76 -3 -73 -7 2 -5 -49 -8 -114 -8 -165 -1
-344 -9 -368 -17 -11 -3 -33 -7 -50 -9 -60 -5 -190 -23 -205 -28 -8 -4 -40 -8
-70 -9 -30 -2 -80 -11 -110 -20 -52 -15 -76 -20 -163 -34 -21 -3 -40 -10 -43
-14 -3 -5 -21 -9 -40 -9 -20 0 -43 -4 -53 -10 -10 -5 -30 -11 -45 -14 -15 -3
-53 -13 -84 -22 -31 -10 -67 -17 -80 -17 -12 0 -20 -2 -17 -5 4 -4 -121 -52
-200 -76 -5 -2 -21 -8 -35 -13 -14 -6 -28 -9 -32 -6 -5 2 -8 -1 -8 -6 0 -6
-12 -11 -26 -11 -14 0 -23 -4 -19 -10 4 -6 -7 -10 -24 -10 -17 0 -31 -4 -31
-8 0 -9 -67 -35 -83 -32 -4 0 -14 -6 -22 -13 -7 -8 -25 -13 -38 -12 -18 2 -27
-3 -30 -16 -3 -11 -14 -19 -25 -19 -12 0 -24 -4 -27 -10 -3 -5 -15 -10 -25
-10 -10 0 -20 -5 -22 -10 -2 -6 -13 -12 -25 -13 -12 0 -19 -5 -17 -9 3 -4 -2
-8 -11 -8 -9 0 -23 -7 -32 -15 -8 -8 -19 -13 -24 -10 -5 4 -9 1 -9 -4 0 -6 -9
-11 -20 -11 -11 0 -20 -4 -20 -10 0 -5 -9 -10 -20 -10 -11 0 -20 -4 -20 -8 0
-12 -136 -83 -144 -75 -3 3 -6 1 -6 -5 0 -7 -7 -12 -15 -12 -8 0 -30 -14 -50
-31 -20 -18 -47 -33 -60 -34 -30 -4 -47 -14 -41 -24 3 -4 -7 -14 -22 -22 -15
-8 -47 -29 -71 -47 -24 -18 -49 -31 -55 -29 -6 2 -19 -6 -28 -18 -23 -29 -73
-29 -73 0 -1 22 17 45 34 45 6 0 11 3 11 8 0 4 20 16 45 27 25 11 45 23 45 27
0 5 7 8 15 8 8 0 15 7 15 15 0 9 8 18 18 22 9 3 29 15 45 25 15 11 27 17 27
13 0 -3 10 3 22 15 12 11 28 20 35 20 7 0 13 5 13 10 0 6 7 10 15 10 8 0 15 5
15 10 0 6 7 10 15 10 9 0 25 8 36 18 10 11 32 25 47 32 15 7 38 19 52 26 14 8
42 22 63 32 20 9 37 20 37 24 0 5 7 8 15 8 16 0 56 20 65 32 3 4 15 9 25 11
11 2 30 8 42 15 12 7 29 12 37 12 9 0 16 5 16 11 0 6 7 8 16 5 8 -3 13 -2 10
2 -5 8 49 32 68 31 5 0 12 4 16 11 4 6 21 12 39 14 28 2 68 25 45 26 -5 1 14
9 41 19 28 10 58 17 68 15 10 -2 15 1 12 7 -4 5 1 9 9 9 9 0 31 9 49 19 19 10
50 21 71 24 20 3 48 12 62 22 14 9 44 17 67 18 23 1 45 7 49 12 4 6 11 10 15
11 20 2 69 17 78 25 6 4 30 10 54 14 23 3 53 10 65 14 11 5 35 8 53 7 17 0 29
2 26 7 -5 8 -1 9 37 13 14 1 52 10 85 21 33 10 79 18 102 18 22 0 39 3 37 6
-4 7 75 25 181 39 44 6 105 15 135 21 30 5 91 11 135 13 44 1 88 6 97 10 22
10 597 14 718 5 52 -4 138 -10 190 -14 52 -4 109 -10 125 -14 17 -4 55 -9 85
-10 30 -1 57 -7 61 -12 3 -6 10 -11 15 -10 5 0 18 -2 29 -4 11 -2 54 -9 95
-16 112 -18 112 -18 158 -28 23 -4 42 -6 42 -3 0 2 6 -1 13 -7 8 -6 37 -13 66
-16 29 -3 61 -10 72 -15 10 -6 19 -7 19 -3 0 4 4 3 8 -4 4 -7 32 -15 62 -19
30 -3 68 -13 84 -21 16 -8 45 -17 65 -19 20 -3 51 -11 69 -20 18 -8 40 -17 50
-19 24 -5 86 -29 92 -35 3 -3 16 -6 30 -8 13 -1 27 -6 30 -10 3 -4 13 -8 23
-9 48 -2 49 -3 45 -28 -3 -14 -1 -25 3 -25 5 0 9 4 9 9 0 7 17 8 71 3 9 -1 19
-11 22 -23 3 -12 10 -18 17 -14 12 7 107 -21 130 -40 8 -6 34 -17 57 -24 23
-6 49 -18 57 -26 8 -8 23 -15 33 -15 11 0 28 -8 39 -17 11 -10 25 -19 32 -20
21 -5 196 -94 213 -109 8 -8 22 -14 30 -14 17 0 59 -36 59 -50 0 -5 6 -7 14
-4 8 3 17 1 21 -5 3 -6 15 -11 25 -11 10 0 25 -6 32 -12 7 -7 25 -19 40 -27
15 -8 37 -22 47 -33 11 -10 27 -18 36 -18 8 0 15 -4 15 -10 0 -5 6 -10 13 -10
7 0 28 -12 47 -28 19 -15 47 -34 63 -41 15 -8 27 -18 27 -23 0 -4 7 -8 16 -8
9 0 12 -5 8 -12 -4 -6 -3 -8 4 -4 6 3 17 -1 25 -9 9 -8 21 -15 27 -15 7 0 10
-6 7 -13 -3 -9 12 -22 41 -36 26 -13 52 -31 60 -42 7 -10 19 -19 26 -19 7 0
25 -11 40 -25 15 -14 32 -25 37 -25 6 0 7 -5 3 -12 -4 -7 -3 -8 4 -4 13 8 62
-36 62 -54 0 -6 4 -9 9 -5 5 3 21 -6 35 -20 14 -14 28 -25 31 -25 3 0 24 -17
46 -37 23 -21 43 -37 45 -35 2 1 12 -6 23 -15 101 -95 122 -113 128 -113 3 0
32 -26 63 -57 31 -32 76 -74 100 -93 24 -20 43 -43 43 -52 0 -10 4 -15 9 -12
4 3 8 -2 8 -11 0 -9 4 -14 9 -10 6 3 21 -7 35 -22 15 -16 59 -62 99 -105 139
-147 156 -166 150 -172 -4 -3 -1 -6 6 -6 7 0 9 -4 6 -10 -3 -5 1 -10 9 -10 9
0 16 -8 16 -18 0 -9 10 -22 23 -27 12 -6 21 -16 20 -23 -2 -7 2 -12 7 -12 6 0
15 -11 20 -25 5 -14 17 -28 25 -31 17 -7 51 -63 47 -78 -2 -5 4 -6 12 -3 11 4
18 -1 22 -18 3 -14 12 -25 20 -25 8 0 14 -10 14 -25 0 -16 6 -25 15 -25 9 0
23 -16 32 -35 9 -19 21 -35 25 -35 5 0 6 -4 3 -10 -3 -5 -2 -10 3 -10 5 0 12
-14 16 -31 3 -17 10 -28 16 -24 5 3 10 -1 10 -10 0 -9 4 -13 10 -10 6 3 10 -1
10 -9 0 -9 5 -16 12 -16 6 0 9 -3 5 -6 -5 -6 -1 -14 29 -47 6 -7 25 -39 43
-72 18 -32 41 -71 52 -86 10 -14 16 -29 12 -33 -3 -3 -1 -6 5 -6 11 0 17 -10
61 -97 14 -26 29 -51 34 -54 5 -3 8 -9 8 -13 -3 -24 0 -46 7 -42 5 3 16 -8 26
-25 9 -16 14 -29 9 -29 -4 0 -3 -4 2 -8 14 -10 36 -50 41 -76 2 -11 8 -22 14
-24 6 -2 8 -8 4 -13 -3 -5 0 -9 6 -9 6 0 8 -4 5 -10 -3 -5 -2 -10 4 -10 5 0
12 -13 16 -30 4 -16 10 -30 15 -30 4 0 11 -16 14 -35 4 -19 11 -35 16 -35 6 0
9 -3 8 -7 -1 -5 3 -18 10 -30 7 -13 10 -23 7 -23 -3 0 1 -13 9 -29 9 -16 12
-31 9 -35 -4 -3 -2 -6 4 -6 11 0 37 -57 34 -72 0 -5 3 -8 8 -8 7 0 17 -33 23
-77 1 -7 7 -14 15 -17 7 -3 13 -12 13 -20 0 -7 7 -26 14 -42 8 -15 13 -31 10
-36 -3 -4 0 -8 5 -8 6 0 11 -13 11 -29 0 -16 7 -34 15 -41 8 -7 12 -16 9 -21
-3 -5 0 -9 7 -9 7 0 10 -3 6 -6 -3 -4 0 -19 8 -35 9 -16 14 -32 13 -36 -2 -7
5 -30 32 -98 15 -37 34 -110 33 -122 0 -7 3 -13 7 -13 9 0 28 -44 35 -79 2
-12 18 -45 35 -72 18 -27 28 -53 24 -60 -4 -7 -3 -9 3 -6 6 4 18 -8 27 -26 9
-17 22 -41 29 -52 6 -11 24 -41 40 -67 16 -26 26 -52 23 -57 -7 -11 12 -26 22
-17 3 4 5 22 4 41 -1 18 2 37 8 40 16 10 21 2 24 -43 2 -22 5 -44 8 -48 2 -5
5 -25 6 -44 3 -46 21 -92 44 -108 10 -7 18 -19 18 -26 0 -21 30 -29 31 -8 0 9
1 32 2 50 1 17 0 32 -3 32 -5 0 -6 67 -2 98 3 19 32 14 33 -5 0 -10 2 -25 4
-33 10 -48 27 -195 28 -247 0 -7 4 -10 8 -7 4 2 9 -1 11 -7 2 -7 27 -13 56
-15 45 -2 53 1 67 23 14 21 16 40 10 111 -21 255 -22 263 -65 482 -10 52 -21
111 -24 130 -3 19 -17 80 -31 135 -15 55 -29 109 -32 120 -3 11 -6 28 -6 38
-1 9 -6 17 -11 17 -5 0 -7 3 -3 6 3 3 -1 24 -9 46 -8 23 -12 43 -9 46 3 3 0
11 -6 19 -7 7 -12 21 -13 31 -1 17 -30 99 -48 137 -5 12 -10 27 -12 35 -2 8
-9 29 -15 45 -7 17 -14 37 -16 45 -2 8 -19 53 -39 100 -20 46 -35 89 -34 95 3
17 -13 55 -23 55 -5 0 -9 6 -9 13 0 8 -6 27 -14 43 -65 134 -106 225 -106 238
0 8 -6 21 -14 28 -15 16 -47 74 -45 84 0 4 -4 10 -11 14 -6 4 -12 13 -14 21
-1 8 -9 25 -18 39 -31 48 -58 105 -58 122 0 9 -9 23 -20 31 -11 8 -17 17 -13
20 3 4 2 7 -4 7 -5 0 -18 19 -29 43 -10 23 -21 44 -25 47 -3 3 -21 30 -39 60
-18 30 -41 64 -51 75 -10 11 -19 27 -21 35 -2 8 -9 21 -16 28 -6 7 -26 35 -44
60 -17 26 -35 50 -40 53 -4 3 -9 17 -10 31 -1 15 -5 25 -8 23 -3 -1 -18 10
-33 26 -16 16 -26 29 -22 29 3 0 -6 12 -20 28 -14 15 -28 36 -31 47 -4 10 -17
28 -30 38 -14 10 -22 23 -19 28 4 5 1 9 -5 9 -6 0 -9 4 -6 9 3 5 0 11 -8 14
-7 3 -27 26 -43 51 -17 25 -33 43 -37 39 -3 -3 -6 0 -6 7 0 7 -11 22 -24 34
-13 11 -26 30 -28 41 -2 12 -13 21 -26 23 -13 2 -22 10 -22 20 0 10 -9 24 -19
32 -11 7 -18 17 -16 20 2 4 -6 12 -18 19 -12 6 -38 36 -57 66 -19 29 -37 52
-41 50 -12 -8 -76 65 -71 80 2 5 1 7 -3 3 -10 -10 -55 33 -55 54 0 10 -6 17
-12 15 -7 -1 -12 4 -11 10 2 7 0 12 -5 12 -20 -3 -32 2 -32 16 0 8 -4 15 -9
15 -11 0 -71 58 -71 69 0 5 -7 12 -16 15 -8 3 -12 11 -8 17 4 7 3 9 -3 6 -13
-8 -75 47 -65 58 4 3 2 5 -4 3 -11 -3 -98 67 -92 75 5 7 -46 57 -59 57 -7 0
-23 11 -37 25 -14 14 -30 25 -36 25 -6 0 -8 5 -5 10 3 6 -1 10 -9 10 -9 0 -18
11 -22 25 -4 15 -13 25 -24 25 -10 0 -25 7 -34 15 -8 8 -18 15 -21 15 -4 0
-25 17 -46 38 -54 51 -69 64 -69 56 0 -4 -8 0 -17 8 -10 9 -46 30 -81 47 -34
18 -61 35 -58 40 5 8 -55 42 -83 47 -8 1 -17 6 -20 11 -3 5 -42 26 -86 48 -83
42 -110 75 -61 75 14 0 28 5 31 10 7 11 45 13 69 4 9 -3 14 -9 12 -13 -3 -4 5
-8 17 -8 12 -1 23 -7 25 -13 2 -5 10 -10 18 -10 9 0 12 -4 9 -10 -3 -5 1 -10
11 -10 9 0 24 -8 33 -17 9 -10 22 -19 30 -21 14 -3 81 -51 92 -65 3 -5 10 -9
15 -9 22 1 73 -31 67 -42 -3 -6 -3 -8 1 -4 8 7 60 -28 129 -85 21 -18 43 -32
47 -32 5 0 17 -8 27 -17 10 -9 31 -28 46 -42 15 -14 33 -26 38 -26 10 0 66
-43 131 -102 17 -16 34 -28 38 -28 4 0 20 -11 36 -25 16 -14 33 -25 37 -25 5
0 6 -4 3 -8 -3 -5 7 -15 21 -23 15 -8 41 -28 58 -45 16 -17 38 -34 48 -37 9
-4 17 -13 17 -22 0 -8 7 -15 15 -15 9 0 29 -13 45 -30 16 -16 34 -30 40 -30 5
0 10 -4 10 -9 0 -5 9 -13 20 -16 11 -4 18 -10 16 -14 -3 -4 6 -8 19 -9 29 -2
43 17 23 32 -8 6 -23 23 -32 39 -10 15 -22 27 -26 27 -15 0 -77 69 -66 74 6 2
3 5 -7 5 -10 1 -35 17 -55 36 -147 141 -192 182 -217 195 -15 8 -30 23 -33 33
-2 9 -10 17 -17 17 -6 0 -26 14 -43 30 -18 17 -35 30 -38 30 -14 0 -104 83
-98 91 3 5 2 8 -3 7 -9 -3 -54 26 -50 33 1 2 0 3 -2 2 -8 -5 -61 28 -61 37 0
6 -7 10 -17 10 -9 0 -33 18 -55 39 -21 22 -38 37 -38 35 0 -3 -13 3 -30 13
-16 9 -30 21 -30 26 0 4 -5 5 -10 2 -6 -3 -13 1 -16 9 -3 9 -10 16 -15 16 -13
0 -119 71 -119 79 0 4 -18 15 -40 25 -22 10 -38 21 -36 25 3 4 -5 8 -17 8 -12
1 -23 7 -25 13 -2 5 -10 10 -18 10 -8 0 -17 6 -20 14 -3 8 -19 18 -35 21 -16
4 -29 11 -29 16 0 5 -7 9 -15 9 -8 0 -15 7 -15 15 0 8 -9 15 -19 15 -22 0
-124 49 -129 62 -2 4 -12 8 -23 8 -10 0 -19 5 -19 10 0 6 -3 9 -7 8 -13 -3
-107 45 -119 61 -6 8 -22 16 -35 18 -13 2 -28 8 -33 13 -6 6 -18 10 -27 10
-10 0 -25 9 -33 21 -8 12 -19 19 -24 15 -5 -3 -35 8 -68 23 -32 16 -77 36 -99
46 -22 9 -57 25 -78 36 -22 10 -45 19 -53 19 -8 0 -14 5 -14 10 0 6 -3 9 -7 9
-25 -4 -43 3 -43 16 0 9 -9 15 -25 15 -14 0 -26 -1 -28 -2 -2 -2 -15 5 -29 14
-31 20 -158 67 -203 75 -16 3 -35 11 -40 18 -6 7 -30 15 -55 19 -24 3 -48 10
-54 16 -5 5 -19 10 -31 10 -12 0 -26 5 -33 12 -7 7 -12 9 -12 5 0 -4 -13 -1
-30 8 -16 8 -45 15 -65 15 -19 0 -35 4 -35 9 0 5 -8 12 -18 15 -36 12 -23 48
23 62 74 22 391 27 418 7 7 -5 24 -9 40 -8 15 0 27 -3 27 -8 0 -4 9 -5 20 -2
13 4 37 -2 61 -14 22 -12 46 -21 54 -21 8 0 15 -4 15 -10 0 -5 10 -10 23 -10
12 0 33 -9 47 -20 14 -11 29 -20 33 -20 12 0 140 -55 167 -71 8 -5 26 -14 40
-20 45 -20 85 -43 98 -56 7 -7 20 -13 29 -13 17 0 96 -41 101 -52 2 -5 12 -8
23 -8 10 0 27 -8 37 -17 9 -10 29 -20 42 -22 14 -1 28 -8 32 -15 4 -6 8 -8 8
-4 0 4 22 -4 49 -17 27 -14 56 -25 65 -25 9 0 16 -4 16 -10 0 -5 3 -9 8 -9 11
2 72 -25 72 -32 0 -4 11 -10 25 -13 14 -4 25 -11 25 -17 0 -6 5 -7 11 -4 15
10 119 -44 119 -61 0 -8 4 -13 8 -10 4 2 21 -1 37 -9 17 -7 45 -19 63 -26 38
-16 42 -39 7 -39 -14 0 -25 -4 -25 -10 0 -5 5 -10 10 -10 6 0 10 -4 10 -10 0
-17 49 -58 84 -70 19 -6 45 -19 58 -29 13 -10 37 -21 53 -25 17 -3 37 -8 45
-10 8 -3 19 -5 23 -5 5 -1 6 -5 3 -10 -4 -5 5 -4 18 2 19 9 22 15 15 29 -5 10
-8 18 -7 19 26 7 45 6 54 -2 7 -6 29 -12 49 -15 l37 -4 -22 30 c-12 16 -28 30
-36 30 -8 0 -14 5 -14 10 0 6 -9 10 -19 10 -11 0 -22 9 -26 19 -6 19 -24 31
-58 38 -23 4 -48 28 -39 37 3 4 -1 4 -9 1 -10 -4 -29 4 -47 19 -16 15 -37 26
-45 26 -9 0 -20 6 -24 13 -4 6 -28 22 -53 35 -70 36 -103 56 -118 70 -7 6 -19
12 -26 12 -6 0 -36 16 -66 35 -30 19 -62 35 -72 35 -12 0 -18 8 -18 21 0 13 6
20 18 18 9 -1 19 0 22 1 29 11 51 7 62 -10 7 -11 22 -20 33 -20 11 0 49 -17
85 -38 36 -21 80 -44 98 -51 20 -8 31 -19 28 -27 -3 -8 0 -11 9 -8 7 3 28 -2
45 -11 54 -28 45 -9 -14 29 -31 20 -56 41 -56 46 0 6 -4 9 -9 6 -4 -3 -16 3
-26 14 -10 11 -23 20 -30 20 -6 0 -21 11 -33 25 -14 16 -27 22 -38 18 -11 -4
-15 -2 -11 4 4 6 -5 14 -20 18 -15 3 -33 14 -39 24 -7 9 -31 23 -53 31 -22 7
-42 18 -45 25 -2 7 -17 16 -33 19 -15 4 -37 18 -49 32 -12 13 -30 25 -40 27
-28 4 -84 31 -84 39 0 5 -7 8 -16 8 -17 0 -46 25 -38 32 3 3 -6 3 -19 1 -14
-3 -29 2 -36 11 -8 9 -21 16 -31 16 -9 0 -25 9 -35 20 -10 11 -24 20 -32 20
-7 0 -13 5 -13 11 0 5 -5 7 -10 4 -14 -9 -52 4 -45 16 3 5 0 6 -8 3 -8 -3 -21
2 -30 10 -9 9 -25 16 -36 16 -12 0 -21 4 -21 8 0 4 -10 8 -22 9 -11 1 -24 6
-27 10 -11 14 -50 33 -70 33 -11 0 -22 4 -26 9 -3 5 -29 17 -58 27 -75 24
-127 48 -127 56 0 5 -13 8 -30 8 -16 0 -30 4 -30 8 0 4 -8 8 -19 9 -22 2 -166
49 -194 64 -11 6 -34 13 -51 16 -30 4 -86 19 -116 30 -8 3 -26 8 -40 10 -46 6
-110 25 -106 32 2 3 -19 7 -47 9 -28 1 -53 6 -56 10 -4 4 -24 9 -46 11 -22 1
-48 7 -57 12 -9 5 -28 9 -41 9 -14 0 -44 7 -68 16 -24 8 -69 17 -99 20 -30 3
-68 9 -84 14 -16 6 -44 10 -63 10 -19 0 -32 3 -30 8 3 4 -16 7 -41 7 -26 0
-67 3 -92 8 -25 4 -58 9 -75 12 -16 2 -32 5 -35 6 -3 1 -30 3 -60 4 -146 5
-316 18 -325 26 -12 9 -750 8 -815 -2z"/>
<path d="M8390 9525 c-30 -19 -54 -39 -52 -45 1 -5 -4 -10 -12 -10 -8 0 -30
-14 -48 -31 -18 -17 -53 -45 -78 -62 -25 -17 -58 -44 -75 -59 -16 -15 -35 -28
-42 -28 -6 0 -13 -4 -15 -9 -1 -5 -9 -11 -17 -13 -8 -2 -29 -18 -48 -36 -19
-20 -38 -30 -44 -26 -7 4 -9 3 -5 -4 6 -11 -43 -52 -64 -52 -6 0 -9 -3 -6 -8
2 -4 -14 -16 -36 -27 -22 -11 -43 -25 -45 -32 -3 -7 -12 -13 -20 -13 -8 0 -11
-4 -8 -10 3 -5 -3 -10 -13 -10 -11 0 -23 -7 -26 -16 -3 -8 -10 -12 -16 -9 -5
3 -10 -1 -10 -9 0 -18 -34 -39 -45 -28 -5 4 -5 1 -1 -5 4 -8 1 -13 -9 -13 -9
0 -13 -4 -10 -10 3 -5 1 -10 -4 -10 -11 0 -42 -23 -72 -54 -11 -11 -19 -17
-19 -13 0 6 -8 1 -62 -45 -11 -10 -29 -20 -39 -23 -11 -4 -19 -11 -19 -16 0
-6 -10 -9 -22 -7 -16 2 -24 -4 -29 -22 -4 -14 -7 -22 -8 -18 -1 4 -18 -9 -38
-27 -21 -19 -44 -35 -51 -35 -7 0 -10 -4 -7 -10 3 -5 1 -10 -5 -10 -6 0 -18
-7 -27 -15 -8 -8 -19 -12 -25 -9 -7 4 -8 2 -4 -4 4 -7 1 -12 -8 -12 -9 0 -16
-4 -16 -10 0 -5 -21 -24 -47 -41 -27 -18 -50 -35 -53 -38 -3 -3 -17 -12 -32
-20 -15 -8 -26 -19 -25 -25 1 -6 -4 -10 -10 -8 -7 1 -13 -2 -13 -8 0 -5 -7
-10 -15 -10 -8 0 -20 -9 -27 -20 -7 -11 -16 -20 -21 -20 -9 0 -31 -17 -55 -42
-9 -10 -21 -18 -26 -18 -5 0 -16 -8 -25 -19 -9 -10 -30 -21 -48 -25 -19 -5
-35 -15 -38 -27 -4 -11 -10 -17 -15 -14 -4 3 -10 -4 -13 -15 -3 -11 -13 -20
-22 -20 -9 0 -13 -4 -10 -10 3 -5 1 -10 -5 -10 -6 0 -18 -7 -27 -15 -8 -8 -20
-12 -26 -8 -7 3 -9 3 -5 -2 9 -10 -31 -47 -43 -39 -4 2 -15 -9 -24 -26 -8 -16
-23 -30 -32 -30 -9 0 -14 -3 -10 -6 7 -7 -1 -15 -51 -57 -19 -15 -31 -27 -29
-27 3 0 -20 -26 -51 -57 -32 -32 -50 -54 -42 -49 8 4 4 -2 -10 -14 -14 -12
-24 -24 -23 -26 1 -2 -7 -24 -18 -49 -19 -43 -19 -54 -9 -252 18 -349 20 -384
35 -528 3 -22 7 -85 9 -141 3 -55 6 -105 8 -110 2 -5 -11 -24 -29 -41 -17 -17
-29 -33 -27 -36 3 -3 -9 -8 -27 -12 -24 -6 -35 -3 -44 9 -7 9 -15 16 -17 16
-11 0 -96 89 -90 94 3 3 0 6 -6 6 -6 0 -22 11 -36 25 -14 14 -23 25 -21 25 8
0 -46 50 -66 60 -11 6 -17 15 -14 21 4 5 1 9 -6 9 -6 0 -19 8 -28 19 -59 67
-92 101 -111 111 -11 6 -18 14 -16 19 3 4 -8 15 -25 25 -16 9 -29 21 -29 26 0
8 -37 45 -157 159 -17 16 -29 32 -25 35 3 3 -3 6 -13 6 -10 0 -16 3 -12 6 7 8
-11 27 -41 43 -12 7 -20 16 -17 22 4 5 1 9 -4 9 -12 0 -100 88 -94 94 2 2 -7
10 -20 19 -26 17 -101 89 -114 109 -4 7 -27 30 -51 51 -23 20 -39 37 -35 37 5
0 1 4 -7 10 -26 16 -154 145 -152 153 1 4 -2 7 -6 7 -4 0 -25 16 -45 35 -20
19 -34 35 -31 35 3 0 -14 16 -38 36 -23 20 -42 39 -41 43 1 3 -12 14 -28 25
-18 11 -28 24 -25 33 3 8 2 12 -3 9 -5 -3 -22 9 -39 28 -16 19 -39 39 -51 46
-12 6 -19 15 -16 21 4 5 2 9 -2 9 -11 0 -86 70 -76 70 5 0 2 4 -6 9 -38 25
-290 284 -285 293 4 6 3 8 -3 5 -13 -8 -86 67 -76 78 5 4 3 5 -4 1 -13 -7 -55
28 -46 38 4 3 2 6 -4 6 -13 0 -138 122 -135 133 1 4 -2 7 -7 7 -4 0 -25 16
-45 35 -21 19 -34 35 -31 35 4 0 -13 16 -37 36 -23 21 -42 40 -41 44 1 4 -8
12 -20 19 -12 7 -31 25 -42 41 -11 17 -26 30 -33 30 -7 0 -10 5 -7 10 3 6 1
10 -5 10 -6 0 -8 5 -4 12 4 6 3 8 -3 5 -11 -7 -103 76 -103 92 0 6 -5 11 -12
11 -6 0 -26 12 -45 26 -18 14 -42 27 -53 29 -11 2 -26 7 -33 12 -6 4 -40 9
-74 10 -49 1 -65 -3 -79 -18 -9 -10 -22 -19 -29 -19 -11 0 -59 -54 -61 -69 0
-3 -6 -19 -13 -36 -7 -16 -15 -39 -18 -50 -8 -32 -10 -177 -2 -220 11 -62 21
-128 21 -145 1 -8 4 -17 7 -20 3 -3 17 -39 30 -80 26 -84 37 -113 57 -152 8
-14 14 -34 14 -43 0 -9 11 -31 25 -49 14 -18 25 -38 25 -45 0 -7 7 -19 15 -28
9 -8 19 -28 22 -44 3 -16 9 -29 13 -29 4 0 12 -17 18 -39 7 -21 19 -44 27 -51
8 -7 15 -23 15 -36 0 -13 5 -24 11 -24 5 0 7 -4 4 -10 -3 -5 -2 -10 4 -10 6 0
16 -18 22 -40 7 -22 16 -40 21 -40 5 0 7 -4 4 -9 -3 -5 1 -14 9 -21 8 -7 15
-18 15 -24 0 -16 116 -254 133 -275 8 -9 25 -38 38 -66 13 -27 32 -57 42 -67
9 -10 17 -25 17 -33 0 -7 6 -18 14 -22 8 -4 16 -15 18 -23 2 -8 11 -23 21 -32
10 -9 20 -23 21 -30 1 -7 14 -26 29 -42 15 -16 27 -33 27 -37 0 -5 8 -18 18
-28 26 -29 76 -92 86 -110 5 -9 17 -24 27 -34 10 -11 30 -39 45 -63 15 -23 31
-41 36 -38 4 3 8 0 8 -6 0 -7 16 -27 35 -46 20 -19 33 -39 30 -44 -4 -6 -1 -9
5 -8 7 2 17 -6 23 -17 7 -11 24 -32 40 -46 15 -14 27 -31 27 -37 0 -7 4 -12 8
-12 4 0 35 -26 69 -57 110 -105 213 -197 228 -206 9 -4 13 -12 10 -18 -3 -5 0
-6 8 -3 7 2 22 -7 33 -21 10 -14 23 -25 28 -25 16 0 77 -51 71 -59 -2 -5 9
-11 25 -15 32 -6 83 -38 112 -70 10 -10 18 -16 18 -11 0 4 6 2 14 -4 7 -6 36
-23 62 -37 27 -14 61 -33 76 -41 15 -8 39 -16 52 -19 14 -2 46 -13 71 -24 26
-11 53 -20 61 -20 8 0 14 -4 14 -8 0 -5 20 -9 44 -11 24 -1 66 -5 94 -10 28
-4 55 -5 59 -1 4 4 33 10 63 13 61 7 100 16 115 28 21 16 75 20 75 6 0 -16
-82 -97 -98 -97 -7 0 -11 -4 -8 -9 7 -11 -61 -64 -73 -57 -5 4 -7 -3 -4 -14 5
-18 -5 -25 -29 -21 -5 0 -8 -4 -8 -10 0 -5 -5 -7 -12 -3 -6 4 -8 3 -5 -3 6
-10 -57 -83 -72 -83 -3 0 -17 -14 -30 -30 -13 -17 -29 -30 -37 -30 -8 0 -14
-5 -14 -10 0 -14 -71 -80 -86 -80 -7 0 -15 -9 -19 -19 -3 -11 -27 -36 -53 -57
-26 -21 -53 -46 -60 -56 -7 -10 -20 -18 -28 -18 -8 0 -13 -4 -10 -8 3 -5 -6
-17 -20 -27 -14 -10 -55 -47 -90 -82 -36 -35 -70 -63 -76 -63 -5 0 -6 -4 -3
-10 3 -5 -1 -10 -10 -10 -9 0 -14 -4 -11 -8 3 -5 -8 -16 -25 -26 -16 -9 -29
-21 -29 -27 0 -5 -15 -18 -32 -29 -18 -11 -29 -20 -24 -20 5 0 -8 -15 -30 -32
-21 -18 -55 -49 -74 -68 -19 -19 -41 -34 -48 -32 -8 2 -11 -1 -8 -7 4 -5 -1
-16 -9 -23 -9 -7 -34 -30 -55 -50 -21 -21 -41 -38 -45 -38 -4 0 -33 -26 -64
-57 -65 -67 -119 -113 -132 -113 -5 0 -9 -6 -9 -14 0 -7 -15 -25 -32 -39 -18
-13 -53 -44 -77 -67 -24 -22 -49 -39 -57 -36 -8 3 -11 0 -8 -8 3 -8 -7 -23
-22 -35 -15 -11 -23 -21 -19 -21 4 0 2 -7 -5 -15 -7 -8 -21 -15 -31 -15 -11 0
-19 -6 -19 -14 0 -8 -13 -23 -30 -33 -16 -9 -30 -22 -30 -28 0 -5 -16 -23 -36
-40 -19 -16 -50 -43 -68 -60 -19 -16 -43 -36 -54 -44 -12 -8 -19 -18 -16 -23
3 -4 1 -8 -5 -8 -9 0 -52 -34 -74 -59 -57 -63 -143 -142 -150 -136 -4 3 -5 2
-3 -1 5 -7 -94 -102 -130 -124 -13 -8 -24 -21 -24 -29 0 -8 -2 -12 -5 -9 -3 3
-38 -27 -79 -66 -91 -88 -119 -111 -129 -108 -4 1 -6 -1 -5 -5 1 -5 -15 -26
-36 -48 -22 -22 -36 -34 -31 -26 5 10 4 12 -4 7 -6 -4 -9 -11 -6 -15 2 -5 -5
-17 -16 -27 -46 -42 -95 -167 -102 -264 -4 -49 19 -144 48 -202 14 -27 25 -56
25 -64 0 -7 6 -11 13 -8 12 4 30 -8 94 -66 12 -11 28 -20 36 -20 7 0 18 -5 25
-12 7 -7 12 -9 12 -6 0 3 22 1 48 -6 26 -7 57 -10 68 -5 12 4 36 9 55 10 19 2
44 10 56 17 13 8 30 12 38 8 9 -3 14 -2 11 3 -5 8 23 39 31 34 1 -2 4 0 4 5 2
11 43 37 54 34 5 -2 7 0 3 3 -4 4 5 19 20 34 15 14 40 43 55 64 16 20 33 35
38 32 5 -4 9 -1 9 6 0 7 13 27 29 43 42 44 71 77 110 122 19 21 39 38 43 36 4
-1 8 2 8 8 0 5 11 20 25 34 14 14 25 30 25 36 0 6 4 9 9 6 4 -3 13 6 19 20 7
13 23 29 37 34 14 5 25 16 25 23 0 17 45 67 60 67 6 0 9 4 6 9 -4 5 -3 11 2
13 4 1 17 16 30 32 12 16 22 25 22 21 0 -8 16 9 57 62 42 54 102 113 114 113
7 0 9 3 6 6 -4 4 11 25 33 48 50 51 80 87 80 95 0 3 13 12 30 19 16 8 29 17
29 20 -3 21 3 32 17 32 8 0 13 4 10 9 -8 12 29 43 39 34 4 -5 5 -3 2 4 -4 6
19 39 53 75 33 34 60 66 60 70 0 4 9 9 19 13 10 3 21 15 24 27 4 14 11 19 22
14 9 -3 13 -2 10 4 -3 6 -1 10 5 10 6 0 9 4 5 9 -6 11 33 51 49 51 5 0 6 3 3
6 -4 4 18 31 48 61 30 30 55 59 55 64 0 5 8 9 17 9 9 0 13 3 10 6 -4 4 4 16
17 28 12 12 33 36 45 54 12 17 29 32 37 32 8 0 13 3 11 8 -1 4 8 20 21 36 12
16 22 26 22 22 0 -4 6 -1 14 6 8 7 13 16 13 19 -1 3 28 36 65 73 37 36 65 66
64 66 -2 0 17 22 42 50 24 27 49 47 55 43 6 -4 7 -1 2 6 -9 15 33 63 48 54 6
-3 7 -2 4 3 -7 13 0 23 43 58 19 16 35 32 35 35 0 3 3 5 7 4 5 -2 8 2 8 8 0 6
16 26 35 45 19 18 35 37 34 40 -2 11 39 43 47 36 4 -4 4 -2 1 5 -4 6 5 21 19
32 15 12 24 21 20 21 -4 0 3 11 16 24 13 12 32 34 44 47 11 13 32 33 47 44 15
11 27 26 27 33 0 7 10 17 23 22 12 5 18 9 13 9 -5 1 3 12 18 26 14 13 26 29
26 35 0 5 3 10 8 10 11 0 72 56 67 62 -3 2 10 21 29 41 18 20 36 33 40 29 4
-4 6 -2 4 3 -5 16 34 61 59 67 13 3 30 0 40 -9 11 -9 13 -12 3 -8 -8 3 -6 0 4
-7 10 -7 28 -24 40 -37 12 -13 30 -31 40 -40 11 -9 66 -62 122 -118 57 -57
106 -103 109 -103 11 0 35 -28 35 -40 0 -6 4 -9 9 -6 5 3 12 -5 15 -19 4 -14
11 -25 17 -25 10 0 84 -67 152 -138 18 -18 54 -54 81 -80 27 -26 56 -55 65
-66 9 -10 31 -33 49 -50 132 -126 157 -151 155 -158 -2 -4 2 -8 7 -8 6 0 43
-34 83 -75 92 -96 97 -101 89 -110 -4 -4 -2 -5 3 -3 6 1 21 -5 35 -15 13 -9
21 -17 17 -17 -9 0 62 -70 71 -71 4 0 22 -19 41 -42 18 -23 36 -42 40 -41 12
1 230 -224 223 -232 -4 -4 -2 -4 4 -1 12 7 46 -28 36 -38 -4 -4 -2 -5 3 -3 14
4 137 -120 131 -131 -3 -5 2 -8 12 -7 9 0 16 -5 14 -12 -1 -8 1 -11 6 -8 9 5
72 -56 72 -70 0 -4 -8 -17 -17 -28 -17 -20 -17 -20 0 -7 13 11 23 11 41 3 41
-18 96 -73 96 -96 0 -15 3 -17 9 -8 6 11 12 9 27 -10 11 -12 38 -40 61 -60 23
-20 39 -39 35 -42 -3 -3 2 -6 11 -6 9 0 17 -3 17 -8 0 -9 179 -192 188 -193 4
0 30 -27 57 -59 28 -32 56 -59 63 -59 11 -1 16 -14 13 -34 -1 -5 3 -6 7 -3 5
3 23 -8 41 -24 17 -17 29 -30 26 -30 -3 0 14 -17 37 -38 52 -45 58 -53 51 -66
-3 -5 -1 -6 4 -3 6 4 28 -9 49 -28 40 -35 118 -60 165 -52 57 10 89 20 89 28
0 4 8 10 18 13 20 7 89 66 76 66 -4 0 -1 6 8 13 18 14 34 62 43 129 4 38 0 58
-22 105 -26 56 -45 83 -57 83 -12 0 -85 84 -80 92 3 5 2 8 -3 7 -20 -3 -34 2
-28 11 3 6 1 10 -5 10 -6 0 -8 5 -5 10 4 6 3 10 -2 9 -20 -3 -34 2 -28 11 3 6
-1 10 -9 10 -9 0 -16 7 -16 15 0 9 -8 19 -17 22 -19 7 -49 33 -38 33 4 0 -19
25 -50 55 -32 30 -54 55 -49 55 5 0 -2 6 -16 13 -14 7 -29 22 -35 35 -5 12
-14 22 -18 22 -18 0 -98 90 -91 102 5 7 2 9 -8 5 -17 -6 -48 21 -48 41 0 7 -3
12 -8 12 -12 0 -122 107 -122 119 0 6 -6 10 -12 8 -7 -1 -12 4 -11 11 2 6 -2
12 -9 12 -12 0 -81 70 -69 70 3 0 0 4 -8 9 -17 11 -281 272 -281 278 0 2 -18
21 -40 40 -22 20 -37 40 -34 45 3 5 2 7 -3 6 -12 -4 -149 132 -145 144 1 5 -1
7 -5 5 -9 -5 -64 48 -63 60 0 4 -3 8 -7 8 -15 0 -112 103 -105 111 4 4 2 4 -4
1 -6 -4 -19 2 -29 13 -10 11 -14 20 -9 20 5 0 -2 6 -16 13 -14 8 -24 19 -23
25 2 7 -1 12 -6 12 -5 0 -26 16 -47 35 -21 19 -34 35 -29 35 4 0 -13 16 -38
36 -26 20 -44 40 -41 45 3 5 0 9 -5 9 -15 0 -51 32 -45 41 2 4 -5 10 -16 14
-11 4 -18 11 -15 16 4 5 -1 9 -9 9 -8 0 -17 9 -21 19 -3 11 -15 23 -26 26 -10
4 -19 12 -19 19 0 6 -13 20 -30 29 -16 10 -30 22 -30 26 0 12 -91 101 -102
101 -5 0 -6 5 -3 10 3 6 1 10 -5 10 -14 0 -79 67 -72 75 3 3 -2 5 -12 5 -9 0
-15 4 -12 8 2 4 -11 18 -30 31 -18 13 -31 27 -28 32 3 5 1 9 -4 9 -13 0 -160
149 -154 155 3 3 -2 5 -12 5 -9 0 -15 4 -12 9 3 5 -4 11 -15 14 -15 4 -20 11
-15 22 3 9 2 13 -4 10 -6 -3 -13 1 -16 9 -3 9 -12 16 -19 16 -8 0 -16 8 -20
18 -3 11 -17 24 -31 31 -14 6 -22 16 -19 21 3 6 -1 10 -10 10 -9 0 -13 5 -10
10 3 6 1 10 -6 10 -16 0 -38 31 -39 55 0 11 16 37 35 58 l35 38 87 -6 c49 -4
94 -8 101 -11 7 -2 72 -6 145 -10 73 -3 135 -8 139 -10 3 -2 62 -6 130 -9 67
-2 166 -8 218 -11 176 -12 203 -12 232 8 14 10 30 18 35 18 6 0 18 9 28 20 10
11 24 20 32 20 8 0 11 5 8 10 -3 6 -1 10 5 10 6 0 27 16 48 35 95 90 112 109
112 116 0 5 8 9 17 9 9 0 13 3 10 7 -6 5 20 37 111 136 9 10 17 24 17 30 1 7
7 11 14 9 7 -1 10 1 7 6 -3 5 10 26 29 46 18 20 34 40 33 42 0 3 9 17 21 30
11 13 22 27 23 32 2 4 6 6 11 4 4 -1 6 4 5 10 -2 7 3 12 10 10 8 -1 11 2 8 7
-8 12 33 63 45 56 5 -4 6 0 3 8 -3 8 9 28 25 46 16 18 30 35 30 39 0 16 34 51
44 45 6 -3 7 -1 3 5 -4 7 -2 12 3 12 6 0 11 6 11 14 0 8 7 17 16 20 8 3 13 10
10 14 -3 5 4 14 14 22 10 8 17 17 15 20 -2 4 11 24 30 44 18 20 34 39 34 42 1
2 1 9 1 14 0 6 6 10 14 10 8 0 25 18 37 40 13 22 27 40 33 40 5 0 6 3 3 7 -9
9 23 44 34 37 5 -3 6 2 3 10 -4 9 1 18 10 22 9 3 16 11 16 18 0 6 14 24 30 39
17 16 28 33 25 37 -3 5 3 15 13 22 10 7 40 46 67 86 26 41 56 77 66 80 17 7
19 10 19 32 0 5 10 19 23 32 12 13 34 41 49 63 24 35 43 59 88 112 5 7 10 17
10 23 0 5 5 10 10 10 6 0 10 5 10 11 0 15 26 39 35 31 4 -4 5 -2 4 3 -5 14 54
92 67 88 5 -2 10 7 11 19 1 13 10 29 20 36 10 7 18 16 18 20 0 4 3 6 7 5 5 -2
8 6 8 16 0 11 8 26 18 33 9 7 26 27 36 43 10 17 30 40 43 52 14 12 26 28 27
35 2 7 6 30 11 51 5 25 3 42 -5 52 -6 8 -8 20 -4 27 4 7 4 10 -1 6 -4 -4 -20
-1 -35 7 -15 8 -38 11 -51 8 -22 -5 -169 -147 -169 -163 0 -3 -26 -34 -57 -68
-101 -108 -133 -145 -133 -153 0 -5 -8 -9 -17 -9 -9 0 -14 -3 -11 -6 8 -7 -83
-100 -95 -96 -5 1 -6 -2 -3 -7 7 -12 -48 -71 -65 -71 -7 0 -9 -3 -6 -6 9 -10
-12 -46 -24 -39 -5 4 -9 -1 -9 -10 0 -9 -5 -13 -10 -10 -6 4 -10 3 -9 -2 3
-18 -2 -33 -11 -33 -13 0 -45 -32 -53 -54 -4 -10 -12 -14 -18 -10 -7 4 -9 3
-6 -4 4 -5 -7 -22 -23 -36 -17 -14 -32 -29 -33 -33 -1 -4 -6 -7 -10 -5 -5 1
-6 -2 -3 -6 6 -11 -28 -45 -36 -37 -3 3 -9 -6 -12 -20 -4 -14 -11 -23 -16 -20
-6 3 -10 2 -10 -3 0 -5 -9 -20 -21 -33 -63 -74 -77 -87 -84 -81 -5 4 -5 2 -2
-4 3 -6 -20 -38 -51 -71 -31 -33 -71 -76 -88 -96 -17 -20 -34 -33 -38 -30 -3
4 -6 -1 -6 -10 0 -16 -115 -137 -131 -137 -5 0 -9 -7 -9 -15 0 -14 -21 -41
-87 -110 -17 -18 -29 -36 -26 -39 4 -3 -1 -6 -10 -6 -9 0 -17 -6 -17 -13 0 -6
-16 -27 -35 -44 -19 -18 -35 -36 -34 -40 1 -5 -9 -14 -22 -20 -13 -7 -19 -13
-14 -13 6 0 -1 -10 -14 -20 -13 -11 -20 -20 -17 -20 3 0 -3 -9 -14 -20 -19
-19 -24 -19 -48 -7 -15 7 -26 19 -24 26 1 7 -1 10 -6 7 -5 -3 -22 8 -37 24
-26 27 -27 32 -15 57 8 16 14 30 14 33 1 3 18 23 38 45 20 22 48 54 63 70 15
17 23 23 19 15 -7 -13 -5 -13 9 -1 9 7 17 21 17 30 0 22 44 64 55 54 4 -5 5
-3 1 4 -3 6 3 18 14 26 11 7 17 17 13 20 -3 4 1 7 10 7 9 0 17 4 17 10 0 5 10
20 23 34 12 13 36 39 53 58 17 18 36 43 43 56 6 12 18 22 25 22 7 0 18 11 24
25 6 14 16 25 22 25 5 0 10 5 10 10 0 6 11 22 25 36 14 14 25 29 25 34 0 6 7
10 15 10 8 0 14 4 13 8 -2 4 16 28 39 52 85 92 93 101 93 111 0 5 7 9 15 9 9
0 19 8 22 18 4 9 24 34 45 54 21 20 38 41 38 46 0 6 10 19 23 29 13 10 26 26
30 36 3 9 11 17 16 17 5 0 13 9 16 20 3 11 12 20 18 20 7 0 23 16 36 35 13 19
28 32 34 28 6 -3 7 -1 3 6 -4 6 0 14 8 17 9 3 16 10 16 15 0 5 15 26 33 46 53
60 67 73 76 73 5 0 14 14 21 30 7 17 19 30 26 30 8 0 14 5 14 10 0 6 11 22 25
35 13 14 21 25 18 25 -3 0 6 11 21 25 15 14 31 25 37 25 5 0 9 8 9 18 0 10 11
25 25 32 14 7 23 15 21 18 -3 2 0 9 5 16 56 65 79 90 79 82 0 -5 7 -3 15 4 8
7 12 16 9 21 -3 5 0 9 7 9 7 0 10 3 6 6 -7 8 44 65 53 59 9 -5 30 63 30 97 0
29 -64 98 -92 98 -10 0 -18 5 -18 10 0 8 -4 8 -12 1 -59 -48 -76 -59 -82 -53
-4 4 -6 0 -4 -8 2 -8 -3 -14 -10 -12 -8 1 -11 -2 -7 -8 3 -5 1 -10 -5 -10 -6
0 -8 -4 -5 -10 3 -5 0 -10 -7 -10 -7 0 -22 -11 -32 -25 -10 -13 -22 -22 -27
-19 -5 3 -6 -3 -2 -13 3 -10 3 -15 -2 -11 -4 4 -42 -29 -85 -72 -42 -44 -82
-80 -88 -80 -7 0 -11 -5 -9 -12 1 -6 -8 -17 -21 -23 -13 -7 -23 -15 -22 -19 1
-12 -104 -115 -112 -110 -5 3 -7 2 -6 -3 4 -13 -143 -163 -154 -157 -4 3 -8 0
-8 -5 0 -18 -112 -131 -123 -124 -6 3 -8 2 -5 -3 7 -11 -17 -35 -27 -26 -4 4
-5 2 -3 -4 3 -12 -191 -210 -203 -207 -4 2 -11 -6 -14 -17 -4 -11 -13 -20 -21
-20 -8 0 -14 -5 -14 -10 0 -16 -62 -80 -77 -80 -8 0 -12 -4 -9 -8 3 -5 -6 -19
-19 -30 -14 -12 -25 -26 -25 -32 0 -5 -7 -10 -17 -10 -9 0 -14 -3 -10 -6 3 -3
-10 -20 -30 -37 -58 -53 -103 -99 -103 -105 0 -4 -14 -16 -30 -27 -16 -11 -30
-25 -30 -31 0 -6 -11 -17 -25 -24 -13 -7 -22 -16 -20 -20 2 -4 -6 -12 -18 -19
-12 -7 -31 -25 -42 -41 -11 -17 -25 -30 -32 -30 -6 0 -15 -9 -18 -20 -3 -11
-10 -20 -14 -20 -5 0 -22 -14 -39 -31 -42 -43 -89 -47 -124 -9 -14 16 -24 31
-20 34 3 3 -2 6 -12 6 -22 0 -45 48 -27 59 7 5 13 12 13 17 2 18 23 44 37 44
8 0 11 3 8 7 -9 8 34 39 48 35 5 -2 7 -1 3 3 -8 8 -5 11 74 95 32 33 61 60 65
60 5 0 15 10 23 21 8 12 41 47 74 78 67 65 96 94 114 116 7 8 18 12 24 9 6 -4
8 -3 5 4 -4 5 6 21 22 35 17 14 27 28 24 31 -4 3 -2 6 3 6 14 0 83 67 76 74
-3 3 -1 6 5 6 6 0 33 23 59 50 26 28 54 50 62 50 7 0 11 4 7 9 -3 5 4 16 15
24 11 7 17 17 13 20 -3 4 -2 7 4 7 12 0 153 139 153 151 0 5 4 9 10 9 5 0 20
11 34 25 14 14 22 25 19 25 -4 0 12 14 35 32 23 18 42 36 42 41 0 4 5 5 10 2
6 -3 10 -1 10 5 0 15 126 140 140 140 5 0 9 4 7 8 -3 11 149 162 163 162 6 0
9 4 8 9 -2 5 44 55 102 112 58 57 117 120 132 139 29 40 31 83 6 121 -21 32
-77 60 -98 49 -8 -4 -26 -10 -40 -11 -26 -4 -50 -20 -45 -30 2 -3 -8 -14 -23
-25 -14 -10 -45 -38 -67 -61 -23 -24 -45 -43 -49 -43 -5 0 -25 -18 -46 -40
-21 -22 -43 -40 -49 -40 -6 0 -11 -4 -11 -10 0 -5 -7 -10 -16 -10 -8 0 -12 -4
-9 -10 3 -5 2 -10 -2 -10 -5 0 -24 -15 -43 -34 -19 -19 -38 -32 -42 -30 -4 2
-9 -5 -13 -16 -3 -11 -10 -20 -13 -20 -4 0 -22 -13 -40 -30 -18 -16 -38 -30
-44 -30 -6 0 -9 -3 -5 -6 6 -6 -16 -34 -28 -34 -3 0 -19 -12 -35 -27 -70 -68
-100 -94 -105 -93 -3 0 -4 -2 -2 -5 1 -2 -9 -12 -23 -22 -14 -9 -29 -23 -33
-30 -5 -7 -12 -11 -18 -8 -5 4 -9 2 -9 -3 0 -5 -9 -19 -20 -32 -11 -13 -20
-20 -20 -17 0 4 -8 -1 -19 -10 -59 -56 -80 -73 -91 -73 -6 0 -8 -4 -5 -10 3
-5 1 -10 -6 -10 -7 0 -27 -15 -44 -32 -17 -18 -50 -49 -73 -68 -24 -19 -56
-47 -71 -62 -16 -15 -32 -24 -36 -20 -3 4 -5 1 -3 -6 2 -8 -5 -19 -16 -25 -10
-7 -35 -28 -55 -47 -61 -57 -81 -71 -93 -64 -6 4 -8 3 -5 -3 8 -13 -29 -53
-98 -108 -27 -22 -62 -51 -76 -65 -23 -22 -82 -74 -174 -155 -52 -46 -73 -57
-95 -50 -11 3 -20 11 -20 16 0 5 -7 9 -15 9 -14 0 -20 12 -16 33 1 5 -2 6 -7
3 -5 -3 -15 3 -24 13 -15 18 -20 51 -7 51 4 0 20 14 36 30 15 17 34 30 42 30
8 0 11 3 8 7 -8 7 34 39 46 35 4 -1 7 3 7 9 0 11 54 69 64 69 6 0 30 21 143
128 43 39 83 72 90 72 7 0 19 12 27 28 8 15 15 23 16 18 0 -5 20 13 45 38 25
26 49 44 55 41 5 -3 10 -2 10 4 0 10 77 91 87 91 4 0 21 16 39 36 18 20 37 33
42 30 6 -3 16 2 23 11 12 14 12 16 -1 8 -8 -4 -4 4 9 18 13 15 29 24 35 20 6
-3 8 -3 4 2 -8 8 12 28 72 74 19 14 63 53 97 86 85 82 111 104 118 97 3 -3 5
2 5 10 0 9 12 24 28 34 15 9 39 30 54 46 14 15 28 28 31 28 3 0 18 12 34 28
54 51 143 127 153 130 6 2 8 8 4 13 -3 5 -1 9 4 9 5 0 34 23 63 50 29 28 61
50 71 50 12 0 15 5 11 16 -4 10 1 17 14 20 11 3 37 25 57 50 20 24 43 44 50
44 21 0 38 72 25 109 -22 61 -78 67 -159 16z"/>
<path d="M11204 8233 c4 -7 2 -13 -3 -13 -6 0 -2 -16 9 -35 11 -19 16 -35 12
-35 -4 0 0 -5 8 -10 8 -5 15 -13 16 -17 0 -4 11 -30 24 -58 13 -27 23 -56 23
-62 0 -7 5 -13 10 -13 6 0 7 -3 4 -7 -4 -3 -2 -12 3 -18 13 -16 59 -140 72
-192 5 -24 13 -43 18 -43 8 0 21 -29 26 -59 2 -7 7 -18 13 -24 6 -6 11 -18 11
-26 0 -9 13 -50 30 -91 16 -41 29 -88 30 -103 0 -16 4 -36 9 -46 5 -9 12 -36
15 -60 2 -23 10 -48 16 -56 21 -25 30 -84 15 -98 -7 -8 -10 -19 -5 -28 4 -8
10 -32 12 -55 3 -23 8 -46 12 -53 8 -13 16 -45 20 -81 2 -14 7 -36 11 -50 9
-26 14 -55 20 -105 2 -16 4 -30 5 -30 2 0 9 -32 14 -65 2 -14 6 -32 9 -40 3
-8 8 -39 12 -69 3 -29 7 -57 10 -60 2 -4 4 -38 5 -77 2 -113 38 -267 64 -277
7 -3 17 8 23 24 6 16 8 29 3 29 -5 0 -7 7 -6 15 1 9 -1 38 -4 65 -4 28 -4 50
0 50 8 0 0 72 -10 85 -3 6 -7 37 -8 70 -1 33 -4 71 -7 85 -3 14 -10 59 -15
100 -19 148 -22 165 -29 195 -4 17 -8 44 -7 62 1 17 -2 29 -5 27 -9 -5 -19 33
-19 70 0 16 -4 43 -9 60 -28 93 -55 204 -56 228 0 14 -4 24 -9 20 -5 -3 -6 2
-3 12 4 9 3 15 -2 12 -8 -5 -27 58 -23 77 1 4 -2 7 -8 7 -5 0 -10 11 -10 25 0
15 -7 39 -15 55 -9 17 -15 32 -15 35 1 3 -8 31 -20 63 -28 77 -30 82 -28 85 0
1 -9 21 -21 45 -12 23 -18 42 -15 42 4 0 -1 8 -10 19 -9 10 -18 28 -19 40 -1
11 -5 21 -9 21 -4 0 -8 5 -8 11 0 15 -72 162 -84 170 -5 4 -5 12 -1 19 5 8 4
11 -3 6 -10 -6 -34 24 -31 41 4 21 -2 33 -17 33 -8 0 -13 3 -11 8 2 4 -7 18
-21 32 -13 14 -22 19 -18 13z"/>
<path d="M11676 7323 c-6 -14 -5 -15 5 -6 7 7 10 15 7 18 -3 3 -9 -2 -12 -12z"/>
<path d="M11846 6094 c-3 -9 -3 -21 1 -27 4 -7 8 -15 8 -19 0 -22 14 -15 20
11 9 44 -14 73 -29 35z"/>
<path d="M11205 6052 c-15 -11 -45 -111 -47 -157 -1 -24 7 -60 21 -90 12 -27
24 -57 26 -65 2 -8 4 -15 5 -15 2 0 9 -35 13 -65 2 -14 9 -36 16 -49 7 -12 11
-31 8 -42 -3 -10 -1 -19 3 -21 5 -2 11 -23 14 -48 3 -25 9 -61 13 -80 4 -19 8
-56 8 -82 0 -25 5 -46 10 -45 6 1 11 -15 13 -35 2 -21 7 -38 13 -38 5 0 9 -7
9 -15 0 -10 9 -14 25 -13 14 1 25 7 25 13 0 6 9 21 19 32 11 12 18 23 15 26
-6 5 15 56 32 77 7 8 14 26 16 40 1 14 10 26 19 28 14 3 16 -12 17 -110 1
-102 13 -261 25 -313 11 -51 30 -2 43 110 4 28 12 55 18 60 7 6 13 28 14 50 0
22 3 65 6 95 6 62 -7 115 -30 124 -8 3 -12 10 -9 16 4 6 -7 13 -24 16 -34 7
-35 10 -21 69 6 26 5 44 -2 52 -11 14 -69 13 -80 -1 -10 -15 -86 12 -93 33 -3
10 -2 29 2 42 5 13 8 65 7 114 -1 51 3 96 9 103 8 10 7 16 -4 23 -8 5 -10 9
-6 9 5 0 2 7 -7 15 -10 10 -26 14 -45 10 -26 -4 -29 -2 -26 15 2 11 6 24 9 29
4 5 3 11 -1 13 -5 1 -16 20 -25 41 -17 36 -32 44 -53 29z"/>
<path d="M11660 5303 c0 -22 2 -25 10 -13 13 20 13 40 0 40 -5 0 -10 -12 -10
-27z"/>
<path d="M1225 2619 c-4 -6 -5 -12 -2 -15 2 -3 7 2 10 11 7 17 1 20 -8 4z"/>
</g>
</svg>
